<svg width="64" height="64" viewBox="0 0 64 64" fill="none" xmlns="http://www.w3.org/2000/svg">
<path d="M20 16H52C53.2 16 54 15.2 54 14C54 12.8 53.2 12 52 12H20C18.8 12 18 12.8 18 14C18 15.2 18.8 16 20 16Z" fill="black"/>
<path d="M20 32H52C53.2 32 54 31.2 54 30C54 28.8 53.2 28 52 28H20C18.8 28 18 28.8 18 30C18 31.2 18.8 32 20 32Z" fill="black"/>
<path d="M20 48H52C53.2 48 54 47.2 54 46C54 44.8 53.2 44 52 44H20C18.8 44 18 44.8 18 46C18 47.2 18.8 48 20 48Z" fill="black"/>
<path d="M9.6 19.2C12.6 19.2 15.2 16.6 15.2 13.6C15.2 10.6 12.6 8 9.6 8C6.6 8 4 10.6 4 13.6C4 16.6 6.6 19.2 9.6 19.2Z" fill="black"/>
<path d="M9.6 35.6C12.6928 35.6 15.2 33.0928 15.2 30C15.2 26.9072 12.6928 24.4 9.6 24.4C6.50721 24.4 4 26.9072 4 30C4 33.0928 6.50721 35.6 9.6 35.6Z" fill="black"/>
<path d="M9.6 52C12.6 52 15.2 49.4 15.2 46.4C15.2 43.4 12.6 40.8 9.6 40.8C6.6 40.8 4 43.4 4 46.4C4 49.4 6.6 52 9.6 52Z" fill="black"/>
</svg>
