<svg width="64" height="64" viewBox="0 0 64 64" fill="none" xmlns="http://www.w3.org/2000/svg">
<path d="M44 48L12 48C10.8 48 10 48.8 10 50C10 51.2 10.8 52 12 52L44 52C45.2 52 46 51.2 46 50C46 48.8 45.2 48 44 48Z" fill="black"/>
<path d="M44 32L12 32C10.8 32 10 32.8 10 34C10 35.2 10.8 36 12 36L44 36C45.2 36 46 35.2 46 34C46 32.8 45.2 32 44 32Z" fill="black"/>
<path d="M44 16L12 16C10.8 16 10 16.8 10 18C10 19.2 10.8 20 12 20L44 20C45.2 20 46 19.2 46 18C46 16.8 45.2 16 44 16Z" fill="black"/>
<path d="M54.4 44.8C51.4 44.8 48.8 47.4 48.8 50.4C48.8 53.4 51.4 56 54.4 56C57.4 56 60 53.4 60 50.4C60 47.4 57.4 44.8 54.4 44.8Z" fill="black"/>
<path d="M54.4 28.4C51.3072 28.4 48.8 30.9072 48.8 34C48.8 37.0928 51.3072 39.6 54.4 39.6C57.4928 39.6 60 37.0928 60 34C60 30.9072 57.4928 28.4 54.4 28.4Z" fill="black"/>
<path d="M54.4 12C51.4 12 48.8 14.6 48.8 17.6C48.8 20.6 51.4 23.2 54.4 23.2C57.4 23.2 60 20.6 60 17.6C60 14.6 57.4 12 54.4 12Z" fill="black"/>
</svg>
